# xmcd CD database file
# Generated: Don Nov 21 08:53:40 2002 by KSCD
# 
# Track frame offsets:
#       150
#       18300
#       35962
#       47812
#       67312
#       83345
#       101045
#       111432
#       127709
#       139701
#       157176
#       176638
#
# Disc length: 2520 seconds
#
# Revision: 9
# Processed by: cddbd v1.4PL0 Copyright (c) Steve Scherf et al.
# Submitted via: Kscd 1.3.3
#
DISCID=a709d60c
DTITLE=The Tennessee Gospel Society - Gospel Christmas - CD 2
DYEAR=1900
DGENRE=
TTITLE0=Jesus, Oh What A Wonderful Child
TTITLE1=Silent Night
TTITLE2=Poor Little Jesus
TTITLE3=Amazing Graze
TTITLE4=He's Got The World In His Hands
TTITLE5=O Christmas Tree
TTITLE6=Mary Had A Baby
TTITLE7=Away In A Manger
TTITLE8=The First Noel
TTITLE9=Glory Halleluja
TTITLE10=O Holy Night
TTITLE11=Amen
EXTD=
EXTT0=
EXTT1=
EXTT2=
EXTT3=
EXTT4=
EXTT5=
EXTT6=
EXTT7=
EXTT8=
EXTT9=
EXTT10=
EXTT11=
PLAYORDER=
